<?xml version="1.0" encoding="UTF-8"?>
<svg id="Layer_2" data-name="Layer 2" xmlns="http://www.w3.org/2000/svg" viewBox="0 0 132.91 175.46">
  <defs>
    <style>
      .cls-1 {
        fill: #ffb300;
        stroke-width: 0px;
      }
    </style>
  </defs>
  <g id="TEXTS">
    <g>
      <g>
        <g>
          <path class="cls-1" d="m12.3,110.18c0,2.57-8.21,1.73-8.21,9.63,0,1.64.58,4.62,1.95,5.73,2.22,1.73,7.1.18,7.1,2.66,0,2-3.06,2.22-4.48,2.22-2.53,0-5.73-1.33-7.01-3.64-1.15-2.04-1.64-4.71-1.64-7.06,0-2.62.67-6.39,2.8-8.17,1.73-1.51,4.39-3.24,6.79-3.24.75,0,1.51.18,2.13.58.18.22.44.44.44.71.09.18.13.36.13.58Z"/>
          <path class="cls-1" d="m31.07,123.86c-1.46,2.44-5.28,5.46-8.21,5.46-.22,0-.44-.04-.67-.09-4.44-.84-6.66-4.17-6.66-8.57,0-1.95.4-4.79,1.64-6.35,1.78-2.22,5.24-4.39,8.17-4.39s4.44.27,6.21,2.75c.93,1.29,1.15,3.06,1.15,4.62,0,2.13-.49,4.71-1.64,6.57Zm-10.25-8.17c-1.02,1.02-1.38,3.42-1.38,4.75,0,2.49,1.38,4.62,4.08,4.62,3.6,0,5.5-3.64,5.5-6.84,0-.98-.18-2.66-1.02-3.33-.98-.8-2.18-1.2-3.42-1.2s-2.97,1.24-3.77,2Z"/>
          <path class="cls-1" d="m52.69,114.98c1.29-1.2,2.93-1.91,4.26-3.06.22-.04.44-.09.71-.09.89,0,1.86.35,2.49,1.02.75,3.91,2.09,11.19,4.04,14.65.13,1.46-1.73,1.46-2.66,1.46-.67,0-1.24-.13-1.55-.8-1.33-3.24-2.75-7.9-3.37-11.36-.09-.09-.18-.18-.31-.18-.22,0-.53.35-.75.49-1.73,2.31-3.46,4.84-4.84,7.37-.36.71-.71,1.55-1.55,1.82-.4.13-.8.22-1.24.22-.31,0-.89-.09-1.15-.36-.49-.53-2.57-6.21-2.89-7.24-.18-.53-.13-1.11-.67-1.46-1.24,1.91-2.26,3.95-3.15,6.08-.27.58-.98,2.66-1.24,3.06-.22.35-.93.4-1.33.4h-.36c-.58-.22-1.02-.8-1.42-1.29.22-1.73,1.11-3.28,1.78-4.88.93-2.17,2.26-4.13,3.37-6.21.36-.71.71-1.42.98-2.13.09-.31.18-.71.31-.98.31-.67,1.15-1.24,1.86-1.24,1.69,0,2.4,2.66,2.62,3.99.22,1.42,1.29,4.75,1.91,6.08,1.6-1.6,2.49-3.77,4.17-5.37Z"/>
          <path class="cls-1" d="m76.62,110.23c-1.73.71-3.73.58-5.5,1.02-.09.31-.04.71-.18,1.02l.04.75c0,.98-.09,1.95-.09,2.93,0,.8.04,1.55.18,2.31.13,0,.27.04.36.04,1.11,0,2.18-.49,3.28-.49s1.42.75,1.42,1.73c0,1.91-3.68,2.22-5.06,2.8.09,1.82.04,3.73.4,5.55.98-.13,2.04-.27,2.97-.49s1.82-.62,2.8-.62c.27,0,.53,0,.8.09.62.44.89.75.89,1.6,0,.44-.44.89-.71,1.15-.89.98-2.89,1.07-4.13,1.24-1.38.22-2.75.75-4.17.75-.44,0-1.33-.09-1.73-.36-1.33-.84-1.02-3.37-1.11-4.75-.22-3.91-.4-7.81-.4-11.72,0-1.11,0-4.35.27-5.28.09-.35.75-.93,1.11-1.07,1.51-.4,5.86-.84,7.46-.84.93,0,1.73.09,1.73,1.24,0,.53-.27,1.02-.62,1.38Z"/>
          <path class="cls-1" d="m106.8,109.65c.4.27.8.4,1.29.4,1.02,0,2.04-.36,3.06-.36.67,0,1.42.13,1.82.75.09.49.18,1.02.18,1.51,0,.8-.18,1.64-.93,2.09-1.64.22-3.37.53-5.06.53-.04.27-.04.53-.04.8,0,.18.13,1.82.09,1.86.09,2.71.27,5.42.44,8.08.13,1.6.27,3.2.27,4.75,0,1.46-1.24,2.53-2.71,2.53-1.07,0-1.78-.22-2.18-1.33-.22-.67-.13-7.99-.13-9.19-.04-2.17-.13-4.44-.4-6.61-.18-.04-.31-.04-.49-.04-1.02,0-2.04.22-3.06.27-.89.09-1.78.36-2.71.36-.44,0-1.07-.13-1.42-.4-.36-.27-.71-1.42-.71-1.82,0-.84.4-2.4,1.38-2.62,1.51-.35,3.06-.4,4.62-.4.62,0,1.29-.09,1.86-.35.53-1.2-.44-3.64,1.51-3.86.53-.04,1.15-.18,1.73-.18,1.51,0,1.46,1.07,1.46,2.18,0,.35.04.75.13,1.07Z"/>
          <path class="cls-1" d="m131.26,123.86c-1.46,2.44-5.28,5.46-8.21,5.46-.22,0-.44-.04-.67-.09-4.44-.84-6.66-4.17-6.66-8.57,0-1.95.4-4.79,1.64-6.35,1.78-2.22,5.24-4.39,8.17-4.39s4.44.27,6.21,2.75c.93,1.29,1.15,3.06,1.15,4.62,0,2.13-.49,4.71-1.64,6.57Zm-10.25-8.17c-1.02,1.02-1.38,3.42-1.38,4.75,0,2.49,1.38,4.62,4.08,4.62,3.6,0,5.5-3.64,5.5-6.84,0-.98-.18-2.66-1.02-3.33-.98-.8-2.18-1.2-3.42-1.2s-2.97,1.24-3.77,2Z"/>
        </g>
        <g>
          <path class="cls-1" d="m23.2,161.79c0,1.96-.69,3.69-2.07,5.17l-1.47,1.59c-1.33,1.43-2.96,2.15-4.9,2.15h-.17l-12.82-.29c-1.17-.03-1.76-.62-1.76-1.78v-26.95c0-1.29.65-1.94,1.96-1.94l12.76.04c2.17,0,3.98.38,5.42,1.14,1.83.97,2.75,2.43,2.75,4.4v2.92c0,1.99-.71,3.69-2.13,5.11l-.93.93,1.2,1.14c1.45,1.38,2.17,3.07,2.17,5.07v1.3Zm-9.37-.87c.01-.1.02-.2.02-.29,0-1.14-.62-1.7-1.86-1.7h-4.3c-.39,0-.58.2-.58.6v5.03c0,.35.19.54.58.58l3.45.31c.14.01.28.02.41.02,1.26,0,1.95-.6,2.05-1.8l.23-2.75Zm.33-10.57v-1.2c0-.77-.39-1.16-1.18-1.16h-4.3c-.36,0-.56.18-.58.54l-.31,3.62c-.01.08-.02.16-.02.23,0,.63.27.95.81.95.13,0,.28-.02.45-.06l3.29-.74c1.23-.27,1.84-1,1.84-2.19Z"/>
          <path class="cls-1" d="m48.47,169.83c.05.1.08.21.08.31,0,.09-.03.19-.08.29-.1.16-.28.23-.52.23h-6.62c-.21,0-.36-.08-.46-.23l-7.38-10.86-.77,9.64c-.06.76-.48,1.14-1.24,1.14h-4.22c-.79,0-1.18-.39-1.18-1.18v-28.27c0-1.03.46-1.57,1.37-1.61l12.3-.52h.39c1.95,0,3.59.61,4.92,1.82,1.38,1.25,2.07,2.84,2.07,4.76v5.62c0,2.04-.71,3.74-2.13,5.11l-2.38,2.28,5.87,11.46Zm-8.29-20.2c0-1.01-.52-1.63-1.55-1.86l-3.83-.87c-.08-.01-.15-.02-.21-.02-.31,0-.48.19-.5.58l-.37,6.54v.08c0,.4.19.6.56.6.09,0,.19-.04.31-.12l4.22-2.71c.92-.59,1.38-1.34,1.38-2.23Z"/>
          <path class="cls-1" d="m76.97,174.47c.03.08.04.16.04.23,0,.5-.26.76-.79.76h-6.29c-.85,0-1.43-.37-1.74-1.1l-3.12-7.51-6.89-1.06-1.61,3.87c-.27.65-.71.97-1.32.97h-5.65c-.52,0-.77-.25-.77-.76,0-.1.01-.21.04-.31l10.98-28.75c.27-.72.82-1.12,1.65-1.2l4.36-.43c.12-.01.23-.02.33-.02.97,0,1.57.46,1.82,1.39l8.98,33.92Zm-12.82-14.04l-1.47-6.27c-.1-.43-.39-.64-.87-.64-.32,0-.53.16-.62.48l-1.63,5.75c-.05.17-.08.32-.08.45,0,.39.23.62.7.7l3.14.52s.08.02.12.02c.5,0,.75-.25.75-.76,0-.08-.01-.16-.04-.25Z"/>
          <path class="cls-1" d="m91.05,160.26c-.09.14-.14.29-.14.45,0,.48.24.74.72.79l7.57.83c1.11.12,1.67.74,1.67,1.88v4.65c0,1.17-.59,1.76-1.76,1.76h-20.06c-.92,0-1.37-.46-1.37-1.37v-6.53c0-.17.07-.34.21-.5l9.91-11.99c.13-.16.19-.34.19-.54,0-.5-.26-.76-.79-.76l-8.95.04c-1.17,0-1.76-.59-1.76-1.76v-5.89c0-1.16.57-1.76,1.72-1.78l21.88-.58h.08c1.02,0,1.53.52,1.53,1.55v2.42c0,.14-.04.28-.12.41l-10.53,16.92Z"/>
          <path class="cls-1" d="m104.1,141.66v-.04c0-1.05.52-1.57,1.57-1.57h7.3c1.03,0,1.55.49,1.55,1.47v.14l-1.28,27.36c-.05,1.02-.58,1.53-1.59,1.53h-5.63c-1.03,0-1.56-.52-1.57-1.57l-.35-27.32Z"/>
          <path class="cls-1" d="m122.88,134.14c.5,0,.77.25.79.76l1.06,23.99h6.6c1.05,0,1.57.52,1.57,1.57v8.6c0,1.05-.52,1.57-1.57,1.57h-12.64c-1.02,0-1.53-.5-1.53-1.49v-.12l1.18-34.12c.01-.5.28-.76.79-.76h3.74Z"/>
        </g>
      </g>
      <path class="cls-1" d="m113.96,31.03L68.65.67c-1.33-.89-3.07-.89-4.4,0L18.95,31.03c-2.33,1.56-2.33,5,0,6.56l45.31,30.36c1.33.89,3.07.89,4.4,0l45.31-30.36c2.33-1.56,2.33-5,0-6.56Zm-47.51,16.96c-7.55,0-13.68-6.12-13.68-13.68s6.12-13.68,13.68-13.68,13.68,6.12,13.68,13.68-6.12,13.68-13.68,13.68Z"/>
    </g>
  </g>
</svg>